<?xml version="1.0" standalone="no"?><!DOCTYPE svg PUBLIC "-//W3C//DTD SVG 1.1//EN" "http://www.w3.org/Graphics/SVG/1.1/DTD/svg11.dtd"><svg height="1024" node-id="1" sillyvg="true" template-height="1024" template-width="1024" version="1.1" viewBox="0 0 1024 1024" width="1024" xmlns="http://www.w3.org/2000/svg" xmlns:xlink="http://www.w3.org/1999/xlink"><defs node-id="80"></defs><g node-id="241"><path d="M 900.43 512.52 C 724.89 475.00 782.84 141.24 427.65 141.24 C 196.12 141.24 122.30 280.86 99.00 378.07 L 152.92 415.58 C 155.82 417.60 156.54 421.59 154.52 424.49 C 152.50 427.39 148.51 428.11 145.61 426.09 L 96.11 391.66 C 89.71 428.52 94.11 493.77 99.35 528.43 C 104.24 561.14 101.79 593.25 75.78 696.64 C -2.82 1009.00 323.72 837.38 634.82 899.69 C 715.74 915.90 784.38 899.97 838.62 866.94 L 791.28 817.81 C 789.61 816.18 788.95 813.77 789.58 811.52 C 790.20 809.27 792.00 807.54 794.27 807.00 C 796.54 806.46 798.92 807.20 800.49 808.93 L 849.61 859.93 C 994.58 761.86 1027.16 539.63 900.43 512.52 Z" fill="#e61f19" fill-opacity="0.2" fill-rule="nonzero" group-id="1" node-id="84" stroke="none" target-height="867.76" target-width="1029.98" target-x="-2.82" target-y="141.24"></path></g><path d="M 908.71 133.83 C 908.71 188.03 809.38 231.96 686.84 231.96 C 564.30 231.96 464.97 188.03 464.97 133.83 C 464.97 79.63 564.30 35.70 686.84 35.70 C 809.38 35.70 908.71 79.63 908.71 133.83 Z" fill="#ffffff" fill-rule="nonzero" node-id="87" stroke="none" target-height="196.26001" target-width="443.74002" target-x="464.97" target-y="35.7"></path><path d="M 686.84 234.09 C 563.32 234.09 462.84 189.09 462.84 133.83 C 462.84 78.57 563.32 33.56 686.84 33.56 C 810.36 33.56 910.84 78.56 910.84 133.83 C 910.84 189.10 810.35 234.09 686.84 234.09 Z M 686.84 37.83 C 565.68 37.83 467.10 80.89 467.10 133.83 C 467.10 186.77 565.68 229.83 686.84 229.83 C 808.00 229.83 906.57 186.76 906.57 133.83 C 906.57 80.90 808.00 37.83 686.84 37.83 Z" fill="#231815" fill-rule="nonzero" node-id="89" stroke="none" target-height="200.53" target-width="448.00003" target-x="462.84" target-y="33.56"></path><path d="M 883.10 403.77 C 883.10 403.77 883.10 326.97 870.30 322.71 C 857.50 318.45 857.50 344.04 861.77 356.84" fill="#ffffff" fill-rule="nonzero" node-id="91" stroke="none" target-height="85.31998" target-width="25.599976" target-x="857.5" target-y="318.45"></path><path d="M 883.10 405.91 C 881.92 405.90 880.97 404.95 880.97 403.77 C 880.97 372.52 877.45 327.34 869.63 324.77 C 866.97 323.88 865.63 324.77 864.85 325.58 C 860.30 330.13 860.47 346.22 863.79 356.20 C 864.16 356.94 864.06 357.83 863.54 358.48 C 863.02 359.13 862.17 359.41 861.37 359.21 C 860.56 359.01 859.95 358.36 859.79 357.55 C 856.35 347.25 855.49 328.96 861.88 322.55 C 863.55 320.87 866.49 319.19 871.02 320.70 C 884.59 325.23 885.28 390.70 885.28 403.79 C 885.27 404.36 885.04 404.91 884.63 405.30 C 884.22 405.70 883.67 405.92 883.10 405.91 Z" fill="#040000" fill-rule="nonzero" node-id="93" stroke="none" target-height="86.73068" target-width="29.79004" target-x="855.49" target-y="319.19"></path><path d="M 813.35 372.70 C 810.80 365.41 811.97 357.33 816.47 351.05 C 820.70 344.98 827.97 339.77 840.47 339.77 C 870.21 339.77 900.20 476.31 792.97 625.64 C 791.83 627.15 790.60 628.57 789.27 629.91 C 779.94 639.77 730.10 677.91 703.93 685.37 L 661.27 621.37 C 661.27 621.37 703.27 611.37 733.80 582.97 C 763.62 555.25 794.57 513.89 817.28 472.04 C 823.17 461.19 812.71 449.80 817.28 437.91 C 834.15 394.00 818.58 387.44 813.35 372.70 Z" fill="#ffffff" fill-rule="nonzero" node-id="95" stroke="none" target-height="345.6" target-width="238.93" target-x="661.27" target-y="339.77"></path><path d="M 703.90 687.51 C 703.18 687.50 702.51 687.12 702.13 686.51 L 659.46 622.51 C 659.07 621.92 658.99 621.17 659.25 620.51 C 659.51 619.86 660.06 619.38 660.74 619.22 C 661.16 619.12 702.54 609.01 732.32 581.33 C 761.57 554.22 792.62 513.00 815.38 471.00 C 818.04 466.10 816.82 460.82 815.53 455.23 C 814.20 449.45 812.82 443.47 815.26 437.12 C 828.11 403.71 821.93 393.03 815.95 382.69 C 814.13 379.74 812.59 376.63 811.34 373.40 L 811.34 373.40 C 808.55 365.46 809.81 356.65 814.72 349.81 C 820.36 341.72 829.02 337.62 840.44 337.62 C 847.01 337.62 853.44 343.15 858.62 353.18 C 876.62 388.32 884.73 501.45 794.62 626.86 C 793.45 628.43 792.16 629.92 790.78 631.31 C 780.89 641.76 731.10 679.79 704.44 687.40 C 704.27 687.46 704.08 687.50 703.90 687.51 Z M 664.66 622.66 L 704.80 682.87 C 730.69 674.61 778.51 638.14 787.69 628.45 C 788.95 627.18 790.12 625.83 791.20 624.40 C 880.12 500.58 872.46 389.53 854.82 355.15 C 850.44 346.61 845.33 341.91 840.44 341.91 C 830.44 341.91 823.02 345.39 818.22 352.27 C 814.10 357.98 813.03 365.35 815.36 372.00 L 815.36 372.00 C 816.52 374.99 817.96 377.86 819.65 380.58 C 825.83 391.27 832.83 403.37 819.24 438.68 C 817.24 443.81 818.45 448.91 819.69 454.30 C 821.10 460.42 822.56 466.74 819.13 473.07 C 796.13 515.38 764.79 557.07 735.22 584.54 C 709.27 608.66 674.82 619.77 664.66 622.66 Z" fill="#040000" fill-rule="nonzero" node-id="97" stroke="none" target-height="349.89" target-width="225.73828" target-x="658.9917" target-y="337.62"></path><path d="M 842.72 433.64 L 803.54 433.64 C 798.20 433.64 793.97 427.58 794.32 420.43 L 799.88 308.66 C 800.20 302.16 804.23 297.11 809.09 297.11 L 848.27 297.11 C 853.61 297.11 857.84 303.16 857.48 310.31 L 851.93 422.08 C 851.61 428.58 847.58 433.64 842.72 433.64 Z" fill="#ffffff" fill-rule="nonzero" node-id="99" stroke="none" target-height="136.53003" target-width="63.870056" target-x="793.97" target-y="297.11"></path><path d="M 842.72 435.77 L 803.54 435.77 C 800.78 435.72 798.15 434.53 796.30 432.48 C 793.36 429.14 791.88 424.77 792.19 420.33 L 797.75 308.56 C 798.13 300.94 803.11 294.97 809.09 294.97 L 848.27 294.97 C 851.03 295.02 853.65 296.21 855.50 298.26 C 858.44 301.60 859.93 305.98 859.62 310.42 L 854.06 422.19 C 853.68 429.81 848.70 435.77 842.72 435.77 Z M 809.09 299.24 C 805.39 299.24 802.28 303.42 802.01 308.77 L 796.46 420.54 C 796.20 423.81 797.25 427.05 799.39 429.54 C 800.44 430.75 801.94 431.47 803.54 431.54 L 842.72 431.54 C 846.42 431.54 849.53 427.35 849.80 422.00 L 855.35 310.23 C 855.61 306.96 854.55 303.72 852.41 301.23 C 851.36 300.02 849.87 299.30 848.27 299.23 Z" fill="#040000" fill-rule="nonzero" node-id="101" stroke="none" target-height="140.79999" target-width="68.045044" target-x="791.8836" target-y="294.97"></path><path d="M 837.00 425.11 L 803.09 425.11 C 798.47 425.11 794.81 419.43 795.09 412.73 L 799.90 307.94 C 800.18 301.84 803.66 297.11 807.90 297.11 L 841.80 297.11 C 846.41 297.11 850.07 302.78 849.80 309.48 L 845.00 414.27 C 844.67 420.37 841.18 425.11 837.00 425.11 Z" fill="#040000" fill-rule="nonzero" node-id="103" stroke="none" target-height="128" target-width="55.26001" target-x="794.81" target-y="297.11"></path><path d="M 811.06 597.65 C 847.54 541.73 848.97 514.71 865.42 478.19 C 875.64 455.50 890.26 421.40 886.76 405.65 C 880.85 379.07 868.76 362.71 861.95 355.16 C 858.44 351.20 854.07 348.09 849.17 346.09 C 844.82 344.37 838.90 342.58 835.56 345.92 C 822.76 358.72 847.88 365.92 844.09 371.52 C 844.09 371.52 822.76 375.79 856.89 405.65 C 856.89 405.65 839.82 418.45 844.09 456.85" fill="#ffffff" fill-rule="nonzero" node-id="105" stroke="none" target-height="255.07004" target-width="79.20001" target-x="811.06" target-y="342.58"></path><path d="M 811.06 599.79 C 810.64 599.79 810.24 599.67 809.89 599.44 C 809.40 599.13 809.06 598.64 808.95 598.07 C 808.83 597.51 808.95 596.92 809.27 596.44 C 833.97 558.58 842.43 534.27 850.62 510.75 C 854.51 499.57 858.19 489.01 863.48 477.26 C 870.90 460.80 888.27 422.26 884.67 406.07 C 878.85 379.86 866.95 363.79 860.37 356.54 C 857.08 352.82 852.97 349.90 848.37 348.02 C 844.69 346.57 839.52 344.92 837.05 347.38 C 834.93 349.49 833.94 351.43 834.05 353.29 C 834.17 356.67 837.80 359.82 841.05 362.59 C 844.51 365.59 848.42 368.98 845.93 372.67 C 845.61 373.13 845.13 373.45 844.58 373.56 C 844.43 373.56 840.72 374.42 839.89 377.62 C 839.06 380.82 840.40 388.28 858.36 404.00 C 858.85 404.42 859.12 405.04 859.09 405.69 C 859.07 406.33 858.75 406.93 858.24 407.31 C 858.09 407.43 842.24 420.05 846.24 456.57 C 846.37 457.74 845.53 458.80 844.36 458.93 C 843.18 459.05 842.13 458.21 842.00 457.04 C 838.46 425.20 849.21 410.37 853.75 405.64 C 839.94 393.22 833.88 383.42 835.75 376.49 C 836.70 373.35 839.12 370.87 842.23 369.83 C 841.67 368.83 839.57 366.97 838.23 365.83 C 834.56 362.65 829.99 358.69 829.80 353.45 C 829.69 350.38 831.13 347.33 834.09 344.37 C 838.83 339.64 846.94 342.85 850.00 344.07 C 855.20 346.19 859.85 349.48 863.57 353.68 C 870.43 361.24 882.84 377.98 888.88 405.15 C 892.32 420.63 879.96 451.15 867.41 479.03 C 862.19 490.59 858.55 501.03 854.69 512.17 C 846.42 535.92 837.87 560.49 812.89 598.78 C 812.50 599.41 811.80 599.79 811.06 599.79 Z" fill="#040000" fill-rule="nonzero" node-id="107" stroke="none" target-height="260.15436" target-width="83.48889" target-x="808.8311" target-y="339.64"></path><path d="M 874.57 397.37 C 873.81 397.37 873.10 396.96 872.72 396.30 C 856.85 368.52 837.72 375.58 836.95 375.89 C 835.85 376.32 834.60 375.78 834.16 374.68 C 833.73 373.57 834.28 372.32 835.38 371.89 C 835.61 371.80 858.64 363.03 876.38 394.15 C 876.76 394.81 876.76 395.62 876.38 396.28 C 875.99 396.94 875.29 397.34 874.53 397.34 Z" fill="#040000" fill-rule="nonzero" node-id="109" stroke="none" target-height="34.342987" target-width="43.026978" target-x="833.73145" target-y="363.03"></path><path d="M 191.90 839.00 C 191.90 839.00 157.77 928.60 153.50 988.34 L 230.30 988.34 C 230.30 988.34 251.64 877.40 268.70 851.80 Z" fill="#ffffff" fill-rule="nonzero" node-id="111" stroke="none" target-height="149.34003" target-width="115.20001" target-x="153.5" target-y="839"></path><path d="M 232.07 990.44 L 151.21 990.44 L 151.38 988.15 C 155.62 928.79 189.57 839.15 189.91 838.21 L 190.53 836.58 L 272.31 850.21 L 270.48 853.00 C 253.85 877.95 232.61 987.64 232.40 988.75 Z M 155.81 986.17 L 228.55 986.17 C 231.33 971.98 249.47 881.39 265.24 853.36 L 193.24 841.36 C 188.74 853.62 160.32 931.90 155.81 986.17 Z" fill="#040000" fill-rule="nonzero" node-id="113" stroke="none" target-height="153.85999" target-width="121.09999" target-x="151.21" target-y="836.58"></path><path d="M 702.54 614.06 C 695.90 604.28 682.60 601.71 672.79 608.31 C 653.89 620.93 623.38 637.84 601.37 633.02 C 567.24 625.56 533.11 625.56 509.21 636.76 C 509.21 636.76 560.41 778.63 608.21 774.90 C 608.21 774.90 679.38 752.19 736.04 694.69 C 743.28 687.41 744.37 676.04 738.66 667.51 Z" fill="#040000" fill-rule="nonzero" node-id="115" stroke="none" target-height="176.92157" target-width="235.1644" target-x="509.21" target-y="601.70844"></path><path d="M 924.41 672.71 C 919.63 672.71 915.23 669.36 911.33 662.71 C 908.25 657.47 905.09 654.71 902.20 654.63 C 898.53 654.74 895.41 658.92 894.20 660.79 C 892.50 663.67 890.32 666.24 887.75 668.39 C 880.30 674.24 872.40 673.24 866.06 665.63 C 863.00 661.87 860.00 660.00 857.18 660.00 C 854.36 660.00 852.25 661.91 850.91 663.52 C 847.91 667.10 845.02 669.41 842.02 670.61 C 837.73 672.32 831.27 672.97 825.02 666.39 C 822.52 663.78 819.95 662.54 817.44 662.81 C 812.58 663.26 808.84 668.81 808.80 668.81 C 808.16 669.80 806.84 670.07 805.85 669.43 C 804.86 668.79 804.59 667.47 805.23 666.48 C 805.43 666.18 810.08 659.18 817.05 658.54 C 820.92 658.17 824.66 659.82 828.05 663.42 C 831.80 667.32 835.96 668.42 840.45 666.62 C 842.77 665.70 845.12 663.78 847.63 660.77 C 849.55 658.46 852.77 655.71 857.18 655.71 C 861.28 655.71 865.39 658.14 869.38 662.93 C 874.30 668.84 879.46 669.53 885.15 665.06 C 887.33 663.22 889.18 661.02 890.62 658.55 C 892.54 655.49 896.62 650.40 902.13 650.40 L 902.26 650.40 C 906.78 650.46 911.07 653.89 915.01 660.58 C 918.09 665.81 921.25 668.47 924.41 668.47 L 924.47 668.47 C 929.03 668.42 933.22 662.73 934.47 660.53 C 935.08 659.58 936.32 659.27 937.31 659.82 C 938.29 660.37 938.68 661.59 938.20 662.61 C 937.97 663.02 932.52 672.61 924.55 672.73 Z" fill="#040000" fill-rule="nonzero" node-id="117" stroke="none" target-height="23.839966" target-width="134.09656" target-x="804.5866" target-y="650.4"></path><path d="M 924.41 700.31 C 919.63 700.31 915.23 696.94 911.33 690.31 C 908.25 685.07 905.09 682.31 902.20 682.24 L 902.13 682.24 C 898.50 682.24 895.40 686.54 894.24 688.40 C 892.54 691.28 890.36 693.85 887.79 696.00 C 880.34 701.85 872.44 700.85 866.10 693.24 C 862.96 689.47 859.96 687.56 857.18 687.56 C 854.40 687.56 852.25 689.47 850.91 691.08 C 847.91 694.66 845.02 696.98 842.02 698.17 C 837.73 699.88 831.27 700.53 825.02 693.95 C 822.52 691.34 819.95 690.10 817.44 690.37 C 812.58 690.82 808.84 696.37 808.80 696.37 C 808.16 697.36 806.84 697.63 805.85 696.99 C 804.86 696.35 804.59 695.03 805.23 694.04 C 805.43 693.74 810.08 686.74 817.05 686.10 C 820.92 685.75 824.66 687.38 828.05 690.98 C 831.80 694.89 835.97 695.98 840.45 694.18 C 842.77 693.26 845.12 691.35 847.63 688.33 C 849.55 686.02 852.77 683.27 857.18 683.27 C 861.29 683.27 865.39 685.70 869.38 690.49 C 874.30 696.40 879.46 697.10 885.15 692.62 C 887.33 690.77 889.18 688.57 890.62 686.11 C 892.54 683.11 896.62 677.96 902.13 677.96 L 902.26 677.96 C 906.78 678.02 911.07 681.45 915.01 688.14 C 918.09 693.37 921.25 696.03 924.41 696.03 L 924.47 696.03 C 929.03 696.03 933.22 690.29 934.47 688.10 C 935.04 687.07 936.34 686.70 937.37 687.27 C 938.40 687.84 938.77 689.14 938.20 690.17 C 937.97 690.58 932.52 700.17 924.55 700.29 Z" fill="#040000" fill-rule="nonzero" node-id="119" stroke="none" target-height="23.889954" target-width="134.185" target-x="804.5866" target-y="677.96"></path><path d="M 806.05 251.29 C 806.05 261.82 797.51 270.36 786.98 270.36 C 776.45 270.36 767.91 261.82 767.91 251.29 C 767.91 240.76 776.45 232.22 786.98 232.22 C 797.51 232.22 806.05 240.76 806.05 251.29 Z" fill="#ffffff" fill-rule="nonzero" node-id="121" stroke="none" target-height="38.139984" target-width="38.140015" target-x="767.91" target-y="232.22"></path><path d="M 787.00 272.49 C 778.42 272.49 770.68 267.33 767.40 259.40 C 764.11 251.47 765.92 242.35 771.99 236.28 C 778.06 230.21 787.18 228.40 795.11 231.69 C 803.04 234.97 808.20 242.71 808.20 251.29 C 808.18 262.99 798.70 272.47 787.00 272.49 Z M 787.00 234.35 C 777.64 234.35 770.06 241.93 770.06 251.29 C 770.06 260.65 777.64 268.23 787.00 268.23 C 796.36 268.23 803.94 260.65 803.94 251.29 C 803.91 241.95 796.34 234.38 787.00 234.35 Z" fill="#231815" fill-rule="nonzero" node-id="123" stroke="none" target-height="44.093094" target-width="44.09308" target-x="764.11096" target-y="228.40096"></path><path d="M 831.13 277.15 C 831.13 282.83 826.53 287.43 820.85 287.43 C 815.17 287.43 810.57 282.83 810.57 277.15 C 810.57 271.47 815.17 266.87 820.85 266.87 C 826.53 266.87 831.13 271.47 831.13 277.15 Z" fill="#ffffff" fill-rule="nonzero" node-id="125" stroke="none" target-height="20.559998" target-width="20.559998" target-x="810.57" target-y="266.87"></path><path d="M 820.85 289.56 C 815.83 289.56 811.30 286.53 809.37 281.89 C 807.45 277.25 808.52 271.91 812.07 268.35 C 815.63 264.80 820.97 263.74 825.61 265.67 C 830.25 267.59 833.27 272.13 833.27 277.15 C 833.26 284.00 827.70 289.55 820.85 289.56 Z M 820.85 269.00 C 816.35 269.00 812.70 272.65 812.70 277.15 C 812.70 281.65 816.35 285.30 820.85 285.30 C 825.35 285.30 829.00 281.65 829.00 277.15 C 828.99 272.65 825.35 269.01 820.85 269.00 Z" fill="#231815" fill-rule="nonzero" node-id="127" stroke="none" target-height="25.81723" target-width="25.82135" target-x="807.4527" target-y="263.74277"></path><path d="M 772.17 443.90 C 771.84 443.90 771.52 443.83 771.23 443.68 C 770.54 443.34 754.32 435.16 750.62 417.85 C 750.37 416.70 751.11 415.57 752.26 415.32 C 753.41 415.07 754.54 415.81 754.79 416.96 C 758.07 432.27 772.97 439.78 773.12 439.85 C 773.96 440.32 774.37 441.30 774.14 442.23 C 773.91 443.16 773.08 443.82 772.12 443.85 Z" fill="#231815" fill-rule="nonzero" node-id="129" stroke="none" target-height="28.826813" target-width="23.997986" target-x="750.3742" target-y="415.07422"></path><path d="M 770.87 460.23 L 770.58 460.23 C 770.25 460.23 737.29 455.33 734.25 419.52 C 734.20 418.96 734.38 418.40 734.74 417.96 C 735.10 417.53 735.63 417.26 736.19 417.21 C 736.76 417.15 737.32 417.33 737.76 417.70 C 738.19 418.06 738.46 418.59 738.50 419.16 C 741.25 451.51 769.94 455.83 771.15 456.00 C 772.31 456.10 773.17 457.10 773.09 458.26 C 773.02 459.42 772.03 460.30 770.87 460.25 Z" fill="#231815" fill-rule="nonzero" node-id="131" stroke="none" target-height="43.149414" target-width="38.970703" target-x="734.20013" target-y="417.1546"></path><path d="M 904.62 440.38 C 903.80 440.38 903.05 439.91 902.70 439.18 C 902.34 438.44 902.44 437.56 902.95 436.92 C 912.65 424.71 909.02 408.38 908.95 408.22 C 908.67 407.07 909.38 405.92 910.52 405.64 C 911.67 405.37 912.82 406.07 913.10 407.22 C 913.28 407.97 917.27 425.69 906.26 439.56 C 905.87 440.07 905.26 440.37 904.62 440.38 Z" fill="#231815" fill-rule="nonzero" node-id="133" stroke="none" target-height="35.01355" target-width="14.930908" target-x="902.3391" target-y="405.36887"></path><path d="M 916.48 451.77 C 915.61 451.77 914.83 451.25 914.50 450.44 C 914.17 449.64 914.37 448.71 914.99 448.11 C 938.28 425.36 922.83 399.74 922.68 399.48 C 922.11 398.48 922.44 397.22 923.41 396.62 C 924.39 396.01 925.66 396.29 926.30 397.24 C 926.48 397.52 943.68 426.05 917.97 451.17 C 917.57 451.55 917.04 451.77 916.48 451.77 Z" fill="#231815" fill-rule="nonzero" node-id="135" stroke="none" target-height="55.759186" target-width="29.508606" target-x="914.1714" target-y="396.01413"></path><path d="M 162.00 834.71 C 162.00 834.71 203.23 641.36 385.30 616.43 C 385.30 616.43 475.02 614.57 547.64 626.22 C 591.84 633.31 610.04 689.64 610.04 710.97 C 610.04 774.29 614.30 873.11 597.24 988.31 L 273.00 988.31 L 281.53 877.37 C 281.53 877.37 196.17 877.37 162.00 834.71 Z" fill="#ffffff" fill-rule="nonzero" node-id="137" stroke="none" target-height="373.74" target-width="452.3" target-x="162" target-y="614.57"></path><path d="M 597.24 990.44 L 273.00 990.44 C 272.41 990.44 271.84 990.19 271.43 989.75 C 271.03 989.32 270.83 988.73 270.87 988.14 L 279.23 879.47 C 265.00 879.16 192.00 875.58 160.37 836.00 C 159.97 835.50 159.82 834.85 159.95 834.22 C 160.37 832.22 203.55 639.12 385.01 614.28 C 386.16 614.28 476.01 612.53 548.01 624.07 C 573.01 628.07 588.64 647.00 597.30 662.15 C 607.54 680.08 612.20 700.01 612.20 710.93 C 612.20 720.71 612.30 731.33 612.41 742.73 C 613.01 805.30 613.83 891.01 599.41 988.58 C 599.27 989.66 598.33 990.46 597.24 990.44 Z M 275.24 986.17 L 595.40 986.17 C 609.52 889.68 608.71 804.86 608.12 742.81 C 608.01 731.39 607.90 720.81 607.90 710.97 C 607.90 690.21 589.90 635.15 547.30 628.33 C 475.70 616.85 386.30 618.55 385.30 618.57 C 213.75 642.07 167.86 819.27 164.30 834.17 C 197.83 874.74 280.62 875.24 281.45 875.24 C 282.05 875.24 282.61 875.49 283.02 875.92 C 283.42 876.36 283.63 876.95 283.58 877.54 Z" fill="#040000" fill-rule="nonzero" node-id="139" stroke="none" target-height="377.93463" target-width="454.01193" target-x="159.81808" target-y="612.53"></path><path d="M 456.48 593.75 L 465.85 595.12 L 474.53 596.93 L 482.57 599.15 L 490.47 601.91 L 497.36 604.90 L 503.36 608.11 L 507.73 610.94 L 511.37 613.77 L 514.36 616.59 L 516.77 619.42 L 518.82 622.62 L 520.11 625.72 L 520.74 628.78 L 520.74 631.85 L 520.05 634.85 L 518.75 637.69 L 516.79 640.42 L 514.07 643.07 L 511.09 645.29 L 507.54 647.37 L 503.36 649.31 L 498.46 651.08 L 491.90 652.85 L 484.51 654.22 L 476.19 655.14 L 467.85 655.49 L 458.99 655.30 L 449.56 654.52 L 440.20 653.16 L 431.52 651.35 L 423.47 649.13 L 415.58 646.37 L 408.68 643.37 L 402.69 640.17 L 398.32 637.34 L 394.68 634.51 L 391.69 631.68 L 389.27 628.85 L 387.23 625.66 L 385.93 622.56 L 385.30 619.50 L 385.30 616.42 L 386.00 613.43 L 387.30 610.59 L 389.26 607.86 L 391.97 605.20 L 394.96 602.99 L 398.50 600.91 L 402.69 598.97 L 407.58 597.20 L 414.15 595.42 L 421.54 594.05 L 429.85 593.14 L 438.19 592.79 L 447.05 592.98 L 456.48 593.75 Z" fill="#040000" fill-rule="nonzero" group-id="2" node-id="143" stroke="none" target-height="62.704224" target-width="135.4437" target-x="385.30045" target-y="592.78577"></path><path d="M 439.10 570.17 L 424.22 611.76 C 421.82 618.47 424.58 625.85 431.22 629.83 C 444.40 637.67 467.38 646.05 486.96 625.99 C 489.21 623.71 490.69 620.77 491.18 617.60 L 498.24 570.17 Z" fill="#ffffff" fill-rule="nonzero" node-id="146" stroke="none" target-height="75.880005" target-width="76.41998" target-x="421.82" target-y="570.17"></path><path d="M 459.11 640.55 C 447.64 640.55 437.11 635.82 430.17 631.66 C 422.73 627.23 419.45 618.75 422.17 611.04 L 437.56 568.04 L 500.71 568.04 L 493.29 617.92 C 492.73 621.53 491.06 624.88 488.49 627.48 C 479.00 637.24 468.71 640.55 459.11 640.55 Z M 440.61 572.31 L 426.23 612.48 C 424.13 618.33 426.59 624.57 432.35 627.99 C 446.70 636.53 467.56 642.85 485.47 624.51 C 487.42 622.55 488.69 620.02 489.11 617.29 L 495.80 572.29 Z" fill="#040000" fill-rule="nonzero" node-id="148" stroke="none" target-height="74.81" target-width="81.25998" target-x="419.45" target-y="568.04"></path><path d="M 559.41 481.03 L 527.46 486.38 L 527.46 486.38 L 519.26 437.34 L 519.26 437.34 L 553.08 431.68 L 556.77 431.41 L 560.26 431.76 L 563.59 432.71 L 566.72 434.22 L 569.49 436.20 L 571.94 438.66 L 573.94 441.50 L 575.41 444.68 L 576.36 448.26 L 577.58 455.54 L 577.87 458.60 L 577.77 461.52 L 577.29 464.33 L 576.44 467.05 L 574.79 470.47 L 572.63 473.50 L 569.93 476.18 L 567.63 477.87 L 565.13 479.23 L 562.41 480.28 L 559.42 481.00 Z" fill="#ffffff" fill-rule="nonzero" group-id="3" node-id="152" stroke="none" target-height="54.969696" target-width="58.611145" target-x="519.256" target-y="431.40964"></path><path d="M 527.49 488.47 C 527.05 488.47 526.61 488.34 526.25 488.08 C 525.79 487.75 525.48 487.25 525.38 486.69 L 517.18 437.69 C 517.08 437.13 517.22 436.56 517.54 436.10 C 517.87 435.63 518.37 435.32 518.93 435.23 L 549.33 430.15 C 563.39 427.79 576.70 437.29 579.06 451.35 L 579.44 453.66 C 581.78 467.72 572.29 481.02 558.23 483.39 L 527.84 488.47 Z M 521.74 439.06 L 529.24 483.88 L 557.53 479.15 C 563.17 478.21 568.20 475.06 571.52 470.41 C 574.84 465.75 576.18 459.97 575.23 454.33 L 574.85 452.03 C 572.88 440.28 561.75 432.35 550.00 434.32 Z" fill="#040000" fill-rule="nonzero" node-id="155" stroke="none" target-height="60.67975" target-width="64.69299" target-x="517.08453" target-y="427.79468"></path><path d="M 550.41 464.47 C 550.41 464.47 549.32 451.66 561.50 449.63" fill="#ffffff" fill-rule="nonzero" node-id="157" stroke="none" target-height="14.839996" target-width="12.179993" target-x="549.32" target-y="449.63"></path><path d="M 550.41 466.61 C 549.29 466.61 548.36 465.73 548.29 464.61 C 547.85 459.50 549.98 449.35 561.14 447.48 C 562.30 447.28 563.40 448.07 563.60 449.23 C 563.80 450.39 563.01 451.49 561.85 451.69 C 551.73 453.38 552.50 463.81 552.54 464.25 C 552.64 465.43 551.77 466.46 550.59 466.56 Z" fill="#040000" fill-rule="nonzero" node-id="159" stroke="none" target-height="19.32605" target-width="15.946106" target-x="547.85" target-y="447.28394"></path><path d="M 430.66 377.08 L 468.80 370.70 L 474.25 370.02 L 479.58 369.78 L 484.81 369.96 L 489.95 370.57 L 495.06 371.58 L 499.99 372.97 L 504.76 374.71 L 509.39 376.83 L 513.85 379.30 L 518.08 382.07 L 522.08 385.16 L 525.86 388.58 L 529.37 392.26 L 532.58 396.21 L 535.49 400.42 L 538.11 404.92 L 540.35 409.59 L 542.23 414.47 L 543.74 419.59 L 544.88 424.96 L 555.30 487.24 L 556.17 494.28 L 556.48 501.17 L 556.24 507.93 L 555.46 514.58 L 554.15 521.18 L 552.36 527.56 L 550.11 533.73 L 547.37 539.71 L 544.18 545.48 L 540.59 550.94 L 536.60 556.11 L 532.18 561.00 L 527.42 565.54 L 522.32 569.68 L 516.87 573.44 L 511.06 576.83 L 505.02 579.74 L 498.71 582.17 L 492.09 584.12 L 485.15 585.58 L 485.15 585.58 L 478.10 586.46 L 471.21 586.77 L 464.45 586.53 L 457.80 585.74 L 451.20 584.43 L 444.83 582.65 L 438.66 580.39 L 432.68 577.65 L 426.91 574.46 L 421.45 570.87 L 416.28 566.88 L 411.39 562.46 L 406.85 557.70 L 402.71 552.60 L 398.95 547.15 L 395.56 541.34 L 392.66 535.31 L 390.23 528.99 L 388.28 522.38 L 386.81 515.43 L 376.39 453.16 L 375.71 447.71 L 375.47 442.38 L 375.66 437.15 L 376.26 432.00 L 377.28 426.90 L 378.66 421.97 L 380.41 417.19 L 382.52 412.56 L 384.99 408.10 L 387.77 403.88 L 390.86 399.88 L 394.27 396.09 L 397.96 392.58 L 401.90 389.38 L 406.12 386.47 L 410.61 383.85 L 415.28 381.60 L 420.16 379.72 L 425.28 378.21 L 430.66 377.08 Z" fill="#ffffff" fill-rule="nonzero" group-id="4" node-id="163" stroke="none" target-height="216.9878" target-width="181.00925" target-x="375.47305" target-y="369.7788"></path><path d="M 468.46 589.38 C 427.17 589.27 391.98 559.41 385.16 518.69 L 363.36 388.36 C 363.17 387.20 363.95 386.10 365.11 385.91 L 533.60 357.72 C 534.16 357.63 534.73 357.76 535.20 358.09 C 535.66 358.42 535.97 358.92 536.06 359.48 L 557.86 489.80 C 565.56 535.90 534.45 579.52 488.35 587.24 L 488.35 587.24 L 482.60 588.24 C 477.93 589.01 473.20 589.39 468.46 589.38 Z M 488.00 585.13 L 488.00 585.13 Z M 367.92 389.76 L 389.37 518.00 C 396.74 561.74 438.13 591.27 481.89 584.00 L 487.64 583.00 C 508.66 579.48 527.43 567.76 539.81 550.41 C 552.18 533.05 557.16 511.49 553.64 490.47 L 532.20 362.28 Z" fill="#040000" fill-rule="nonzero" node-id="166" stroke="none" target-height="233.63385" target-width="202.39667" target-x="363.1673" target-y="357.6322"></path><path d="M 348.62 481.34 L 380.18 476.06 L 380.18 476.06 L 388.39 525.14 L 388.39 525.14 L 359.66 529.95 L 356.19 530.28 L 352.85 530.17 L 349.61 529.61 L 346.46 528.64 L 343.53 527.30 L 340.77 525.59 L 338.25 523.54 L 336.03 521.20 L 334.09 518.54 L 332.51 515.66 L 331.31 512.54 L 330.50 509.15 L 330.17 507.20 L 329.88 504.10 L 329.98 501.14 L 330.46 498.28 L 331.32 495.52 L 332.54 492.87 L 334.04 490.45 L 335.83 488.25 L 337.94 486.24 L 340.28 484.53 L 342.82 483.14 L 345.59 482.08 L 348.62 481.34 Z" fill="#ffffff" fill-rule="nonzero" group-id="5" node-id="170" stroke="none" target-height="54.22168" target-width="58.510284" target-x="329.88016" target-y="476.06317"></path><path d="M 354.08 532.67 C 341.47 532.64 330.72 523.53 328.63 511.10 L 328.24 508.80 C 325.90 494.74 335.39 481.44 349.45 479.07 L 379.84 474.00 C 380.40 473.91 380.98 474.04 381.44 474.37 C 381.90 474.70 382.21 475.19 382.30 475.75 L 390.50 524.75 C 390.69 525.91 389.91 527.01 388.75 527.21 L 358.35 532.29 C 356.94 532.53 355.51 532.66 354.08 532.67 Z M 378.44 478.54 L 350.15 483.28 C 344.51 484.22 339.48 487.37 336.16 492.02 C 332.84 496.67 331.51 502.45 332.45 508.09 L 332.83 510.40 C 334.81 522.13 345.91 530.05 357.65 528.10 L 385.94 523.37 Z" fill="#040000" fill-rule="nonzero" node-id="173" stroke="none" target-height="58.761017" target-width="64.7905" target-x="325.9025" target-y="473.90897"></path><path d="M 426.94 449.08 C 426.52 449.08 426.11 449.08 425.69 449.08 C 424.51 449.01 423.62 447.99 423.69 446.81 C 423.79 445.64 424.80 444.76 425.97 444.81 C 438.72 445.74 451.16 428.81 451.28 428.62 C 452.00 427.73 453.28 427.56 454.20 428.23 C 455.13 428.90 455.36 430.17 454.74 431.13 C 454.20 431.85 441.55 449.08 426.94 449.08 Z" fill="#040000" fill-rule="nonzero" node-id="175" stroke="none" target-height="21.519073" target-width="31.746063" target-x="423.61584" target-y="427.5609"></path><path d="M 498.68 428.25 C 497.74 428.25 496.91 427.65 496.64 426.75 C 496.36 425.86 496.70 424.89 497.47 424.36 C 498.25 423.81 516.93 411.12 530.85 417.16 C 531.93 417.63 532.42 418.89 531.96 419.97 C 531.49 421.04 530.23 421.54 529.15 421.07 C 517.39 415.97 500.06 427.75 499.89 427.87 C 499.53 428.11 499.11 428.25 498.68 428.25 Z" fill="#040000" fill-rule="nonzero" node-id="177" stroke="none" target-height="17.134552" target-width="36.066803" target-x="496.35764" target-y="411.12"></path><path d="M 385.16 507.92 C 384.69 507.92 384.23 507.77 383.86 507.48 C 369.86 496.64 359.33 505.75 358.86 506.14 C 357.98 506.82 356.73 506.72 355.98 505.89 C 355.23 505.07 355.24 503.81 356.00 503.00 C 356.13 502.88 369.54 491.00 386.44 504.12 C 386.89 504.47 387.18 504.98 387.25 505.54 C 387.33 506.10 387.17 506.67 386.82 507.12 C 386.42 507.63 385.81 507.92 385.16 507.92 Z" fill="#040000" fill-rule="nonzero" node-id="179" stroke="none" target-height="16.921814" target-width="32.098236" target-x="355.22784" target-y="491"></path><path d="M 418.00 305.64 C 418.00 305.64 453.79 266.73 508.61 305.84 C 508.89 305.84 509.15 305.71 509.43 305.66 C 522.28 303.48 535.42 307.21 545.21 315.81 C 555.00 324.42 560.38 336.98 559.86 350.00 C 568.49 356.50 572.95 367.14 571.52 377.84 C 570.10 388.55 563.02 397.66 553.00 401.67 C 542.97 405.69 531.56 404.00 523.14 397.24 C 516.03 408.44 504.35 421.24 489.14 423.73 C 473.21 426.39 459.96 424.73 449.52 415.59 C 451.34 437.67 430.98 451.18 405.84 455.39 C 404.19 455.66 402.55 455.86 400.93 455.98 C 399.17 476.40 403.17 498.21 403.17 498.21 L 383.05 506.21 C 376.48 466.96 337.32 487.99 337.32 487.99 C 337.32 487.99 327.53 460.99 324.69 443.99 C 321.78 426.63 331.24 412.99 331.24 412.99 C 331.42 412.86 331.62 412.75 331.81 412.62 C 331.06 410.56 330.49 408.44 330.11 406.28 C 326.83 386.65 324.11 365.37 354.59 356.28 C 354.87 344.04 365.25 329.70 379.59 326.97 C 379.64 327.00 388.17 297.11 418.00 305.64 Z" fill="#040000" fill-rule="nonzero" node-id="181" stroke="none" target-height="239.47998" target-width="251.16507" target-x="321.78" target-y="266.73"></path><path d="M 451.82 383.10 C 442.62 383.03 433.46 382.03 424.47 380.10 C 423.32 379.82 422.61 378.67 422.89 377.52 C 423.17 376.37 424.32 375.66 425.47 375.94 C 425.94 376.05 473.34 386.61 488.09 365.94 C 488.80 365.05 490.08 364.88 491.00 365.53 C 491.93 366.19 492.18 367.46 491.57 368.42 C 483.18 380.16 466.47 383.10 451.82 383.10 Z" fill="#ffffff" fill-rule="nonzero" node-id="183" stroke="none" target-height="21.733856" target-width="69.5621" target-x="422.61386" target-y="364.87613"></path><path d="M 502.16 358.76 C 501.32 358.76 500.56 358.26 500.22 357.49 C 499.87 356.72 500.02 355.82 500.58 355.19 C 500.64 355.12 506.99 348.04 508.00 342.01 C 508.19 340.85 509.29 340.06 510.46 340.25 C 511.62 340.45 512.40 341.55 512.21 342.71 C 510.99 349.99 504.04 357.71 503.74 358.06 C 503.34 358.51 502.76 358.76 502.16 358.76 Z" fill="#ffffff" fill-rule="nonzero" node-id="185" stroke="none" target-height="18.698303" target-width="12.529175" target-x="499.87415" target-y="340.0617"></path><path d="M 451.29 504.00 C 437.02 503.96 425.25 492.79 424.49 478.53 C 423.72 464.28 434.22 451.91 448.41 450.34 C 462.60 448.78 475.54 458.56 477.90 472.64 L 477.90 472.64 C 480.35 487.31 470.45 501.18 455.79 503.64 C 454.30 503.88 452.80 504.00 451.29 504.00 Z M 451.36 454.44 C 441.52 454.44 432.80 460.80 429.80 470.18 C 426.79 479.56 430.19 489.80 438.20 495.52 C 445.66 500.84 455.58 501.14 463.35 496.29 C 471.12 491.44 475.20 482.38 473.69 473.35 L 473.69 473.35 C 471.83 462.46 462.41 454.49 451.36 454.48 Z" fill="#040000" fill-rule="nonzero" node-id="187" stroke="none" target-height="55.227264" target-width="56.627655" target-x="423.72403" target-y="448.77707"></path><path d="M 476.63 473.66 L 473.86 470.42 C 474.43 469.93 488.03 458.48 500.93 466.09 L 498.76 469.76 C 488.48 463.69 476.75 473.56 476.63 473.66 Z" fill="#040000" fill-rule="nonzero" node-id="189" stroke="none" target-height="15.179993" target-width="27.070007" target-x="473.86" target-y="458.48"></path><path d="M 426.57 487.00 C 426.34 487.00 426.11 486.96 425.89 486.89 L 393.19 475.89 C 392.23 475.42 391.77 474.31 392.11 473.29 C 392.46 472.28 393.50 471.68 394.55 471.89 L 427.25 482.89 C 428.24 483.22 428.85 484.22 428.68 485.25 C 428.51 486.29 427.62 487.04 426.57 487.04 Z" fill="#040000" fill-rule="nonzero" node-id="191" stroke="none" target-height="15.364105" target-width="37.078247" target-x="391.7671" target-y="471.67804"></path><path d="M 154.15 658.25 C 153.20 658.26 152.36 657.64 152.09 656.73 C 151.82 655.82 152.18 654.84 152.98 654.33 L 184.31 634.00 C 184.95 633.55 185.78 633.49 186.47 633.84 C 187.17 634.18 187.63 634.88 187.66 635.66 C 187.69 636.44 187.30 637.17 186.63 637.57 L 155.31 657.90 C 154.97 658.13 154.56 658.25 154.15 658.25 Z" fill="#040000" fill-rule="nonzero" node-id="193" stroke="none" target-height="24.764832" target-width="35.867844" target-x="151.82236" target-y="633.4921"></path><path d="M 183.34 661.00 C 182.79 661.00 182.27 660.79 181.87 660.41 L 154.81 634.64 C 153.96 633.83 153.92 632.48 154.74 631.62 C 155.55 630.77 156.90 630.74 157.75 631.55 L 184.81 657.32 C 185.45 657.92 185.65 658.85 185.33 659.66 C 185.00 660.47 184.21 661.00 183.34 661.00 Z" fill="#040000" fill-rule="nonzero" node-id="195" stroke="none" target-height="30.265564" target-width="31.728394" target-x="153.92314" target-y="630.73816"></path><path d="M 256.88 530.28 C 252.10 530.28 247.70 526.92 243.80 520.28 C 240.72 515.04 237.56 512.28 234.67 512.20 C 231.01 512.32 227.88 516.49 226.67 518.36 C 224.97 521.24 222.79 523.81 220.22 525.95 C 212.77 531.81 204.87 530.80 198.53 523.19 C 195.39 519.42 192.39 517.51 189.61 517.51 C 186.83 517.51 184.68 519.43 183.35 521.03 C 180.35 524.61 177.46 526.93 174.46 528.12 C 170.16 529.83 163.71 530.48 157.40 523.90 C 154.91 521.30 152.35 520.09 149.84 520.32 C 144.93 520.76 141.23 526.32 141.19 526.32 C 140.55 527.31 139.23 527.58 138.24 526.94 C 137.25 526.30 136.98 524.98 137.62 523.99 C 137.81 523.69 142.46 516.69 149.44 516.04 C 153.32 515.68 157.04 517.32 160.49 520.92 C 164.23 524.83 168.39 525.92 172.88 524.13 C 175.21 523.20 177.56 521.29 180.07 518.27 C 181.99 515.97 185.20 513.27 189.61 513.27 C 193.72 513.27 197.82 515.69 201.81 520.48 C 206.73 526.40 211.90 527.09 217.59 522.62 C 219.77 520.77 221.61 518.57 223.06 516.11 C 224.98 513.05 229.06 507.95 234.56 507.95 L 234.70 507.95 C 239.22 508.02 243.51 511.45 247.44 518.14 C 250.52 523.37 253.68 526.02 256.84 526.02 L 256.90 526.02 C 261.46 526.02 265.65 520.28 266.90 518.09 C 267.51 517.14 268.75 516.83 269.74 517.38 C 270.72 517.93 271.11 519.15 270.63 520.17 C 270.40 520.58 264.95 530.17 256.98 530.29 Z" fill="#040000" fill-rule="nonzero" node-id="197" stroke="none" target-height="23.859985" target-width="134.13657" target-x="136.9766" target-y="507.95"></path><path d="M 523.83 487.00 C 510.71 486.96 499.52 477.47 497.34 464.53 C 494.89 449.87 504.78 436.00 519.45 433.55 C 534.11 431.09 547.98 440.99 550.43 455.65 L 550.43 455.65 C 551.61 462.69 549.94 469.91 545.80 475.73 C 541.66 481.54 535.37 485.47 528.33 486.65 C 526.84 486.89 525.34 487.01 523.83 487.00 Z M 523.90 437.44 C 517.24 437.43 510.91 440.36 506.61 445.44 C 502.30 450.53 500.45 457.25 501.55 463.82 C 502.74 471.94 508.22 478.78 515.88 481.71 C 523.55 484.63 532.19 483.19 538.49 477.93 C 544.78 472.67 547.74 464.41 546.22 456.35 L 546.22 456.35 C 544.39 445.44 534.96 437.44 523.90 437.41 Z" fill="#040000" fill-rule="nonzero" node-id="199" stroke="none" target-height="55.91397" target-width="56.722443" target-x="494.88785" target-y="431.09286"></path><path d="M 541.43 448.74 C 541.43 452.18 538.64 454.97 535.20 454.97 C 531.76 454.97 528.97 452.18 528.97 448.74 C 528.97 445.30 531.76 442.51 535.20 442.51 C 538.64 442.51 541.43 445.30 541.43 448.74 Z" fill="#040000" fill-rule="nonzero" node-id="201" stroke="none" target-height="12.459991" target-width="12.460022" target-x="528.97" target-y="442.51"></path><path d="M 450.81 516.29 L 450.69 516.29 L 430.40 515.18 C 429.22 515.11 428.32 514.11 428.39 512.93 C 428.46 511.75 429.46 510.85 430.64 510.92 L 450.92 512.00 C 452.10 512.03 453.03 513.01 452.99 514.18 C 452.96 515.36 451.99 516.29 450.81 516.26 Z" fill="#231815" fill-rule="nonzero" node-id="203" stroke="none" target-height="5.436676" target-width="24.70166" target-x="428.32373" target-y="510.85373"></path><path d="M 541.77 491.24 C 540.87 491.24 540.06 490.68 539.76 489.83 C 539.46 488.98 539.72 488.03 540.42 487.46 L 551.59 478.28 C 552.51 477.63 553.77 477.79 554.49 478.66 C 555.20 479.53 555.12 480.81 554.30 481.58 L 543.13 490.75 C 542.75 491.07 542.27 491.24 541.77 491.24 Z" fill="#231815" fill-rule="nonzero" node-id="205" stroke="none" target-height="13.614929" target-width="15.742981" target-x="539.45795" target-y="477.62634"></path><path d="M 494.18 501.00 L 493.89 498.87 L 493.94 496.73 C 495.86 496.78 497.63 495.70 498.48 493.98 C 499.37 492.24 499.23 490.15 498.10 488.56 C 496.98 486.95 496.14 485.16 495.60 483.27 C 495.36 482.15 496.05 481.04 497.16 480.75 C 498.27 480.47 499.41 481.10 499.74 482.20 C 500.13 483.57 500.74 484.87 501.55 486.05 C 503.63 488.93 503.92 492.74 502.29 495.90 C 500.76 498.99 497.63 500.96 494.18 501.00 Z" fill="#231815" fill-rule="nonzero" node-id="207" stroke="none" target-height="20.534576" target-width="10.025513" target-x="493.89" target-y="480.46542"></path><path d="M 482.00 526.10 C 481.19 526.10 480.45 525.63 480.09 524.90 C 479.73 524.17 479.82 523.31 480.31 522.66 C 480.45 522.48 494.44 504.83 515.55 516.66 C 516.58 517.23 516.94 518.53 516.37 519.56 C 515.80 520.59 514.50 520.95 513.47 520.38 C 495.60 510.38 484.16 524.65 483.68 525.27 C 483.28 525.79 482.66 526.10 482.00 526.10 Z" fill="#231815" fill-rule="nonzero" node-id="209" stroke="none" target-height="21.269989" target-width="37.2135" target-x="479.7309" target-y="504.83"></path><path d="M 802.39 990.44 L 141.89 990.44 C 141.09 990.49 140.33 990.10 139.92 989.42 C 139.50 988.73 139.50 987.88 139.92 987.19 C 140.33 986.51 141.09 986.12 141.89 986.17 L 802.39 986.17 C 803.51 986.25 804.38 987.18 804.38 988.30 C 804.38 989.43 803.51 990.36 802.39 990.44 Z" fill="#231815" fill-rule="nonzero" node-id="211" stroke="none" target-height="4.3792725" target-width="664.88385" target-x="139.49994" target-y="986.11536"></path><path d="M 468.90 465.81 C 468.90 469.25 466.11 472.04 462.67 472.04 C 459.23 472.04 456.44 469.25 456.44 465.81 C 456.44 462.37 459.23 459.58 462.67 459.58 C 466.11 459.58 468.90 462.37 468.90 465.81 Z" fill="#040000" fill-rule="nonzero" node-id="213" stroke="none" target-height="12.460022" target-width="12.459991" target-x="456.44" target-y="459.58"></path><path d="M 239.16 685.48 C 251.75 676.91 267.38 673.37 282.16 676.96 C 300.60 681.42 329.68 701.29 327.28 749.29 C 323.89 817.08 293.57 863.29 281.28 879.48 C 278.16 883.59 273.27 885.97 268.11 885.90 C 247.39 885.65 191.57 881.83 161.91 849.58 C 158.44 845.74 157.04 840.47 158.12 835.41 C 163.56 809.00 185.12 722.24 239.16 685.48 Z" fill="#040000" fill-rule="nonzero" node-id="215" stroke="none" target-height="212.60437" target-width="172.64493" target-x="157.03506" target-y="673.37"></path><path d="M 395.13 768.11 C 400.84 771.19 406.83 773.75 413.00 775.75 C 409.60 788.74 407.77 802.09 407.54 815.52 L 366.84 815.52 C 367.66 796.28 374.41 777.77 386.17 762.52 C 389.03 764.58 392.02 766.44 395.13 768.11 Z M 456.38 823.67 L 415.69 823.67 C 415.92 836.32 417.64 848.90 420.82 861.14 C 432.45 858.17 444.38 856.55 456.38 856.31 Z M 395.13 871.08 C 400.84 868.00 406.83 865.44 413.00 863.44 C 409.60 850.45 407.77 837.10 407.54 823.67 L 366.84 823.67 C 367.64 842.93 374.40 861.47 386.17 876.73 C 389.03 874.65 392.02 872.77 395.13 871.08 Z M 464.53 730.34 L 464.53 774.73 C 475.74 774.49 486.89 772.99 497.76 770.25 C 496.04 765.09 493.92 760.08 491.42 755.25 C 483.93 740.87 474.51 732.20 464.53 730.34 Z M 456.38 815.52 L 456.38 782.88 C 444.38 782.64 432.45 781.02 420.82 778.05 C 417.64 790.29 415.92 802.87 415.69 815.52 Z M 500.10 778.05 C 488.47 781.02 476.53 782.64 464.53 782.88 L 464.53 815.52 L 505.23 815.52 C 505.00 802.87 503.28 790.29 500.10 778.05 Z M 456.38 908.85 L 456.38 864.46 C 445.17 864.70 434.03 866.20 423.16 868.94 C 424.88 874.10 427.00 879.11 429.50 883.94 C 437.00 898.32 446.41 907.00 456.38 908.85 Z M 429.50 755.22 C 427.00 760.05 424.88 765.06 423.16 770.22 C 434.03 772.96 445.17 774.46 456.38 774.70 L 456.38 730.34 C 446.41 732.20 437.00 740.87 429.50 755.22 Z M 525.79 768.11 C 520.07 771.19 514.09 773.75 507.91 775.75 C 511.32 788.74 513.15 802.09 513.38 815.52 L 554.08 815.52 C 553.27 796.26 546.52 777.73 534.75 762.46 C 531.89 764.54 528.90 766.42 525.79 768.11 Z M 399.00 761.00 C 404.22 763.82 409.67 766.16 415.31 768.00 C 417.18 762.33 419.50 756.81 422.24 751.50 C 426.99 742.39 432.57 735.21 438.83 730.14 C 439.90 729.27 440.99 728.46 442.08 727.73 C 422.59 731.62 404.84 741.62 391.40 756.27 C 393.83 758.00 396.37 759.58 399.00 761.00 Z M 438.86 909.10 C 432.60 904.00 427.00 896.84 422.27 887.74 C 419.53 882.43 417.22 876.91 415.34 871.24 C 409.70 873.08 404.25 875.42 399.03 878.24 C 396.40 879.67 393.87 881.25 391.43 882.98 C 404.87 897.63 422.62 907.63 442.11 911.52 C 441.02 910.78 439.93 909.98 438.86 909.11 Z M 521.86 878.23 C 516.64 875.41 511.18 873.07 505.54 871.23 C 503.67 876.91 501.36 882.42 498.61 887.73 C 493.86 896.83 488.28 904.03 482.03 909.09 C 480.95 909.96 479.87 910.76 478.77 911.50 C 498.27 907.63 516.04 897.65 529.49 883.00 C 527.05 881.27 524.52 879.69 521.89 878.26 Z M 491.42 884.00 C 493.92 879.17 496.04 874.16 497.76 869.00 C 486.89 866.26 475.74 864.75 464.53 864.52 L 464.53 908.91 C 474.53 907.05 483.93 898.38 491.42 884.03 Z M 464.53 823.70 L 464.53 856.34 C 476.53 856.58 488.47 858.20 500.10 861.17 C 503.28 848.93 505.00 836.35 505.23 823.70 Z M 482.06 730.12 C 488.31 735.19 493.90 742.38 498.64 751.48 C 501.38 756.79 503.70 762.30 505.57 767.98 C 511.21 766.14 516.67 763.80 521.89 760.98 C 524.52 759.55 527.05 757.97 529.49 756.24 C 516.05 741.59 498.30 731.59 478.80 727.70 C 479.90 728.41 481.00 729.22 482.06 730.09 Z M 534.75 876.76 C 546.52 861.49 553.27 842.96 554.08 823.70 L 513.38 823.70 C 513.15 837.13 511.31 850.48 507.91 863.47 C 514.09 865.47 520.07 868.03 525.79 871.11 C 528.91 872.79 531.92 874.67 534.79 876.75 Z" fill="#040000" fill-rule="nonzero" node-id="217" stroke="none" target-height="183.82" target-width="187.24002" target-x="366.84" target-y="727.7"></path><path d="M 592.39 166.00 C 561.44 166.00 525.88 141.50 524.17 140.30 C 523.20 139.63 522.96 138.30 523.64 137.34 C 524.31 136.37 525.63 136.13 526.60 136.80 C 527.07 137.13 573.60 169.21 604.67 160.09 C 613.67 157.45 620.54 151.52 625.20 142.42 C 614.40 139.21 605.60 131.15 602.48 123.61 C 600.48 118.90 600.89 114.72 603.48 111.82 C 607.80 107.00 612.15 104.70 616.48 104.76 C 620.37 104.89 624.01 107.05 627.29 111.21 C 633.45 119.25 634.96 129.92 631.29 139.36 C 632.00 139.45 632.72 139.52 633.44 139.56 C 642.59 140.04 655.81 136.35 667.00 115.91 C 667.57 114.88 668.86 114.50 669.89 115.07 C 670.93 115.63 671.31 116.93 670.74 117.96 C 658.49 140.35 643.58 144.39 633.21 143.82 C 631.98 143.75 630.75 143.61 629.53 143.41 C 624.33 154.13 616.40 161.11 605.93 164.19 C 601.53 165.44 596.97 166.05 592.39 166.00 Z M 616.10 109.00 C 613.20 109.00 610.03 110.90 606.67 114.65 C 604.72 116.82 605.67 120.16 606.42 121.95 C 609.13 128.50 617.25 135.75 626.99 138.47 C 630.39 129.97 629.22 120.56 623.90 113.83 C 621.44 110.71 618.90 109.09 616.30 109.01 Z" fill="#231815" fill-rule="nonzero" node-id="219" stroke="none" target-height="64.51001" target-width="148.3421" target-x="522.964" target-y="104.7"></path><path d="M 723.00 153.38 C 721.84 153.39 720.89 152.47 720.86 151.31 L 719.22 95.49 C 719.20 94.85 719.47 94.24 719.95 93.82 C 720.44 93.41 721.08 93.22 721.71 93.32 L 862.09 117.13 C 863.10 117.30 863.84 118.15 863.87 119.17 C 863.90 120.19 863.20 121.09 862.21 121.31 L 723.48 153.31 C 723.32 153.35 723.16 153.38 723.00 153.38 Z M 723.60 98.00 L 725.09 148.62 L 850.90 119.62 Z" fill="#231815" fill-rule="nonzero" node-id="221" stroke="none" target-height="60.16131" target-width="144.70123" target-x="719.20087" target-y="93.22459"></path><path d="M 721.39 95.43 L 696.08 108.47 L 861.77 119.23 L 721.39 95.43 Z" fill="#221714" fill-rule="nonzero" node-id="223" stroke="none" target-height="23.800003" target-width="165.69" target-x="696.08" target-y="95.43"></path><path d="M 861.77 121.37 L 861.63 121.37 L 695.94 110.59 C 695.00 110.52 694.22 109.83 694.02 108.90 C 693.83 107.98 694.27 107.04 695.10 106.59 L 720.42 93.59 C 720.83 93.39 721.30 93.31 721.75 93.38 L 862.13 117.19 C 863.20 117.40 863.95 118.38 863.85 119.47 C 863.76 120.56 862.86 121.40 861.77 121.43 Z M 703.90 106.83 L 820.64 114.42 L 721.74 97.65 Z" fill="#231815" fill-rule="nonzero" node-id="225" stroke="none" target-height="28.11612" target-width="170.117" target-x="693.82886" target-y="93.31388"></path><path d="M 276.00 244.88 C 272.26 244.88 268.96 242.45 267.84 238.88 L 259.37 211.44 C 258.66 209.14 258.96 206.64 260.19 204.56 C 261.42 202.49 263.47 201.04 265.84 200.56 C 272.34 199.22 286.56 194.05 288.90 186.62 C 290.69 180.95 285.19 173.54 280.26 168.31 C 273.31 160.94 267.17 157.77 262.04 158.91 C 252.97 160.91 245.21 176.11 242.87 183.15 C 241.38 187.62 236.55 190.05 232.08 188.56 C 227.61 187.07 225.18 182.24 226.67 177.77 C 227.72 174.62 237.49 146.86 258.35 142.25 C 269.76 139.71 281.35 144.55 292.68 156.60 C 304.43 169.06 308.63 180.91 305.16 191.81 C 301.10 204.58 287.57 211.43 278.25 214.73 L 284.15 233.84 C 284.95 236.43 284.47 239.24 282.86 241.42 C 281.25 243.59 278.71 244.88 276.00 244.88 Z" fill="#040000" fill-rule="nonzero" node-id="227" stroke="none" target-height="105.17" target-width="83.44565" target-x="225.18436" target-y="139.71"></path><path d="M 297.80 267.58 C 297.80 273.11 293.32 277.59 287.79 277.59 C 282.26 277.59 277.78 273.11 277.78 267.58 C 277.78 262.05 282.26 257.57 287.79 257.57 C 293.32 257.57 297.80 262.05 297.80 267.58 Z" fill="#040000" fill-rule="nonzero" node-id="229" stroke="none" target-height="20.019989" target-width="20.019989" target-x="277.78" target-y="257.57"></path><path d="M 352.60 204.12 C 348.86 204.12 345.56 201.69 344.45 198.12 L 336.00 170.67 C 335.29 168.37 335.59 165.87 336.82 163.79 C 338.05 161.72 340.10 160.27 342.47 159.79 C 348.97 158.45 363.19 153.28 365.54 145.85 C 367.33 140.18 361.83 132.77 356.90 127.54 C 349.95 120.17 343.81 117.01 338.68 118.13 C 328.96 120.26 321.38 136.78 319.50 142.39 C 317.92 146.73 313.17 149.03 308.78 147.57 C 304.39 146.11 301.97 141.43 303.30 137.00 C 304.35 133.85 314.13 106.09 334.98 101.47 C 346.40 98.94 357.98 103.78 369.31 115.83 C 381.07 128.29 385.31 140.13 381.80 151.04 C 377.73 163.80 364.21 170.66 354.88 173.96 L 360.79 193.07 C 361.59 195.66 361.11 198.47 359.50 200.65 C 357.89 202.83 355.34 204.12 352.63 204.12 Z" fill="#040000" fill-rule="nonzero" node-id="231" stroke="none" target-height="105.18167" target-width="83.34436" target-x="301.96564" target-y="98.94"></path><path d="M 374.41 226.82 C 374.41 232.35 369.93 236.83 364.40 236.83 C 358.87 236.83 354.39 232.35 354.39 226.82 C 354.39 221.29 358.87 216.81 364.40 216.81 C 369.93 216.81 374.41 221.29 374.41 226.82 Z" fill="#040000" fill-rule="nonzero" node-id="233" stroke="none" target-height="20.020004" target-width="20.019989" target-x="354.39" target-y="216.81"></path><path d="M 199.24 287.62 C 195.50 287.62 192.20 285.19 191.09 281.62 L 182.61 254.18 C 181.90 251.88 182.20 249.38 183.43 247.30 C 184.66 245.23 186.71 243.78 189.08 243.30 C 195.58 241.96 209.80 236.79 212.15 229.36 C 213.94 223.69 208.44 216.28 203.51 211.05 C 196.56 203.68 190.44 200.52 185.30 201.64 C 175.57 203.78 167.99 220.29 166.10 225.90 C 164.61 230.37 159.78 232.79 155.31 231.30 C 150.84 229.81 148.42 224.98 149.91 220.51 C 150.96 217.36 160.74 189.60 181.59 184.98 C 193.02 182.44 204.59 187.29 215.92 199.34 C 227.68 211.80 231.92 223.64 228.41 234.55 C 224.35 247.32 210.82 254.17 201.49 257.47 L 207.40 276.58 C 208.20 279.17 207.72 281.98 206.11 284.16 C 204.50 286.34 201.95 287.63 199.24 287.63 Z" fill="#040000" fill-rule="nonzero" node-id="235" stroke="none" target-height="105.19" target-width="83.49841" target-x="148.42159" target-y="182.44"></path><path d="M 221.05 310.32 C 221.05 315.85 216.57 320.33 211.04 320.33 C 205.51 320.33 201.03 315.85 201.03 310.32 C 201.03 304.79 205.51 300.31 211.04 300.31 C 216.57 300.31 221.05 304.79 221.05 310.32 Z" fill="#040000" fill-rule="nonzero" node-id="237" stroke="none" target-height="20.019989" target-width="20.020004" target-x="201.03" target-y="300.31"></path><path d="M 0.00 0.00 L 1024.00 0.00 L 1024.00 1024.00 L 0.00 1024.00 Z" fill="none" node-id="239" stroke="none" target-height="1024" target-width="1024" target-x="0" target-y="0"></path></svg>